<svg width="29.517944" height="29.518066" viewBox="0 0 29.5179 29.5181" fill="none" xmlns="http://www.w3.org/2000/svg" xmlns:xlink="http://www.w3.org/1999/xlink">
	<desc>
			Created with Pixso.
	</desc>
	<defs/>
	<path id="Vector" d="M25.32 4.19C22.62 1.48 19.02 0 15.2 0C15.2 0 15.2 0 15.2 0C13.31 0 11.46 0.36 9.72 1.08C7.98 1.81 6.41 2.85 5.08 4.19C2.37 6.89 0.88 10.49 0.88 14.31C0.88 16.59 1.43 18.86 2.48 20.87L0.07 27.75C-0.1 28.23 0.02 28.76 0.38 29.12C0.64 29.38 0.97 29.51 1.32 29.51C1.47 29.51 1.61 29.49 1.76 29.44L8.63 27.03C10.65 28.07 12.92 28.62 15.2 28.62C19.02 28.62 22.62 27.14 25.32 24.43C28.02 21.73 29.51 18.13 29.51 14.31C29.51 10.49 28.02 6.89 25.32 4.19ZM24.1 23.21C21.72 25.58 18.56 26.89 15.2 26.89C13.14 26.89 11.1 26.38 9.29 25.42C8.96 25.25 8.58 25.22 8.23 25.34L1.98 27.52L4.17 21.28C4.29 20.93 4.26 20.54 4.09 20.22C3.12 18.41 2.62 16.37 2.62 14.31C2.62 10.95 3.92 7.79 6.3 5.41C8.68 3.04 11.84 1.73 15.2 1.73L15.2 1.73C18.56 1.73 21.72 3.04 24.1 5.41C26.47 7.79 27.78 10.95 27.78 14.31C27.78 17.67 26.47 20.83 24.1 23.21Z" fill="#FFFFFF" fill-opacity="1.000000" fill-rule="nonzero"/>
	<path id="Vector" d="" fill="#FFFFFF" fill-opacity="1.000000" fill-rule="evenodd"/>
	<path id="Vector" d="M20.52 15.59C19.86 14.93 18.79 14.93 18.13 15.59L17.41 16.31C15.62 15.33 14.17 13.89 13.2 12.1L13.92 11.38C14.58 10.72 14.58 9.65 13.92 8.99L11.98 7.05C11.32 6.39 10.25 6.39 9.59 7.05L8.04 8.6C7.15 9.49 7.1 11.02 7.91 12.91C8.61 14.55 9.9 16.35 11.53 17.98C13.16 19.61 14.96 20.89 16.6 21.6C17.5 21.98 18.31 22.17 19.02 22.17C19.8 22.17 20.44 21.94 20.91 21.47L22.46 19.92L22.46 19.92C22.78 19.6 22.95 19.17 22.95 18.72C22.95 18.27 22.78 17.85 22.46 17.53L20.52 15.59ZM19.68 20.25C19.43 20.5 18.65 20.59 17.28 20C15.84 19.39 14.23 18.23 12.76 16.75C11.28 15.27 10.12 13.67 9.5 12.23C8.92 10.86 9.01 10.08 9.26 9.83L10.78 8.3L12.67 10.18L11.76 11.09C11.36 11.49 11.26 12.11 11.52 12.62C12.7 14.95 14.56 16.8 16.88 17.99C17.4 18.25 18.02 18.15 18.42 17.74L19.32 16.84L21.21 18.72L19.68 20.25Z" fill="#FFFFFF" fill-opacity="1.000000" fill-rule="nonzero"/>
	<path id="Vector" d="" fill="#FFFFFF" fill-opacity="1.000000" fill-rule="evenodd"/>
</svg>
