<svg width="17.008911" height="30.000000" viewBox="0 0 17.0089 30" fill="none" xmlns="http://www.w3.org/2000/svg" xmlns:xlink="http://www.w3.org/1999/xlink">
	<desc>
			Created with Pixso.
	</desc>
	<defs/>
	<path d="M10.5 30L5.7 30C4.9 30 4.25 29.34 4.25 28.54L4.25 17.7L1.45 17.7C0.65 17.7 0 17.05 0 16.25L0 11.61C0 10.8 0.65 10.15 1.45 10.15L4.25 10.15L4.25 7.82C4.25 5.52 4.97 3.56 6.34 2.15C7.71 0.74 9.63 0 11.89 0L15.55 0C16.35 0 17 0.66 17 1.46L17 5.77C17 6.57 16.35 7.22 15.55 7.22L13.09 7.22C12.34 7.22 12.14 7.37 12.1 7.42C12.04 7.5 11.96 7.71 11.96 8.31L11.96 10.15L15.37 10.15C15.62 10.15 15.87 10.21 16.08 10.33C16.55 10.59 16.83 11.08 16.83 11.61L16.83 16.25C16.83 17.05 16.18 17.7 15.38 17.7L11.96 17.7L11.96 28.54C11.96 29.34 11.3 30 10.5 30ZM6.01 28.24L10.2 28.24L10.2 16.92C10.2 16.38 10.63 15.94 11.17 15.94L15.07 15.94L15.08 11.91L11.17 11.91C10.63 11.91 10.2 11.47 10.2 10.94L10.2 8.31C10.2 7.63 10.27 6.84 10.79 6.26C11.41 5.55 12.4 5.46 13.09 5.46L15.25 5.46L15.25 1.76L11.89 1.75C8.26 1.75 6.01 4.08 6.01 7.82L6.01 10.94C6.01 11.47 5.57 11.91 5.03 11.91L1.75 11.91L1.75 15.94L5.03 15.94C5.57 15.94 6.01 16.38 6.01 16.92L6.01 28.24ZM15.55 1.76L15.55 1.76L15.55 1.76Z" fill="#FFFFFF" fill-opacity="1.000000" fill-rule="nonzero"/>
</svg>
