<svg width="29.533203" height="29.517883" viewBox="0 0 29.5332 29.5179" fill="none" xmlns="http://www.w3.org/2000/svg" xmlns:xlink="http://www.w3.org/1999/xlink">
	<desc>
			Created with Pixso.
	</desc>
	<defs/>
	<path d="M21.53 0L7.99 0C3.58 0 0 3.58 0 7.99L0 21.52C0 25.93 3.58 29.51 7.99 29.51L21.53 29.51C25.94 29.51 29.53 25.93 29.53 21.52L29.53 7.99C29.53 3.58 25.94 0 21.53 0L21.53 0ZM27.8 21.52C27.8 24.97 24.99 27.78 21.53 27.78L7.99 27.78C4.54 27.78 1.73 24.97 1.73 21.52L1.73 7.99C1.73 4.53 4.54 1.73 7.99 1.73L21.53 1.73C24.99 1.73 27.8 4.53 27.8 7.99L27.8 21.52Z" fill="#FFFFFF" fill-opacity="1.000000" fill-rule="nonzero"/>
	<path d="M14.76 6.68C10.31 6.68 6.69 10.3 6.69 14.75C6.69 19.2 10.31 22.83 14.76 22.83C19.21 22.83 22.84 19.2 22.84 14.75C22.84 10.3 19.21 6.68 14.76 6.68ZM14.76 21.09C11.26 21.09 8.42 18.25 8.42 14.75C8.42 11.26 11.26 8.41 14.76 8.41C18.26 8.41 21.11 11.26 21.11 14.75C21.11 18.25 18.26 21.09 14.76 21.09Z" fill="#FFFFFF" fill-opacity="1.000000" fill-rule="nonzero"/>
	<path d="M23.03 3.82C21.71 3.82 20.64 4.89 20.64 6.2C20.64 7.52 21.71 8.59 23.03 8.59C24.35 8.59 25.42 7.52 25.42 6.2C25.42 4.89 24.35 3.82 23.03 3.82ZM23.03 6.86C22.67 6.86 22.38 6.56 22.38 6.2C22.38 5.84 22.67 5.55 23.03 5.55C23.39 5.55 23.68 5.84 23.68 6.2C23.68 6.56 23.39 6.86 23.03 6.86Z" fill="#FFFFFF" fill-opacity="1.000000" fill-rule="nonzero"/>
</svg>
