<svg width="182.094727" height="51.000000" viewBox="0 0 182.095 51" fill="none" xmlns="http://www.w3.org/2000/svg" xmlns:xlink="http://www.w3.org/1999/xlink">
	<desc>
			Created with Pixso.
	</desc>
	<defs>
		<clipPath id="clip3_79">
			<rect rx="0.000000" width="181.094788" height="50.000000" transform="translate(0.500000 0.500000)" fill="white" fill-opacity="0"/>
		</clipPath>
	</defs>
	<rect rx="0.000000" width="181.094788" height="50.000000" transform="translate(0.500000 0.500000)" fill="#FFFFFF" fill-opacity="0"/>
	<g clip-path="url(#clip3_79)">
		<path d="M14.19 24.15C14.19 23.23 13.86 22.53 13.22 22.05C12.57 21.55 11.41 21.04 9.73 20.5C8.04 19.95 6.71 19.41 5.73 18.88C3.06 17.44 1.72 15.5 1.72 13.05C1.72 11.78 2.08 10.65 2.79 9.66C3.51 8.66 4.54 7.88 5.88 7.32C7.23 6.76 8.73 6.48 10.4 6.48C12.09 6.48 13.58 6.78 14.9 7.4C16.21 8 17.23 8.86 17.95 9.97C18.69 11.08 19.05 12.34 19.05 13.75L14.2 13.75C14.2 12.67 13.86 11.84 13.19 11.24C12.51 10.64 11.55 10.34 10.32 10.34C9.14 10.34 8.22 10.59 7.56 11.1C6.9 11.59 6.57 12.25 6.57 13.07C6.57 13.83 6.96 14.47 7.72 14.99C8.5 15.51 9.63 15.99 11.13 16.44C13.89 17.27 15.9 18.3 17.16 19.53C18.42 20.76 19.05 22.29 19.05 24.12C19.05 26.15 18.28 27.75 16.74 28.91C15.2 30.07 13.13 30.64 10.52 30.64C8.71 30.64 7.06 30.31 5.57 29.66C4.08 28.99 2.95 28.08 2.16 26.93C1.38 25.77 1 24.44 1 22.92L5.86 22.92C5.86 25.52 7.41 26.81 10.52 26.81C11.67 26.81 12.57 26.58 13.22 26.12C13.86 25.65 14.19 24.99 14.19 24.15ZM60.18 26.43L70.48 26.43L70.48 30.32L55.33 30.32L55.33 6.8L60.18 6.8L60.18 26.43ZM86.89 25.47L78.38 25.47L76.77 30.32L71.61 30.32L80.37 6.8L84.87 6.8L93.68 30.32L88.52 30.32L86.89 25.47ZM79.69 21.55L85.58 21.55L82.62 12.75L79.69 21.55ZM104.59 21.71L100.73 21.71L100.73 30.32L95.87 30.32L95.87 6.8L104.62 6.8C107.4 6.8 109.55 7.42 111.06 8.66C112.56 9.9 113.32 11.65 113.32 13.91C113.32 15.51 112.97 16.85 112.27 17.93C111.58 19 110.53 19.85 109.12 20.48L114.21 30.09L114.21 30.32L109 30.32L104.59 21.71ZM100.73 17.78L104.64 17.78C105.86 17.78 106.8 17.48 107.47 16.86C108.13 16.24 108.47 15.38 108.47 14.3C108.47 13.19 108.15 12.31 107.51 11.68C106.89 11.04 105.93 10.73 104.62 10.73L100.73 10.73L100.73 17.78ZM139.43 20.13L130.11 20.13L130.11 26.43L141.04 26.43L141.04 30.32L125.27 30.32L125.27 6.8L141.01 6.8L141.01 10.73L130.11 10.73L130.11 16.33L139.43 16.33L139.43 20.13ZM152.31 14.91L156.72 6.8L162.3 6.8L155.45 18.46L162.48 30.32L156.84 30.32L152.31 22.08L147.78 30.32L142.14 30.32L149.17 18.46L142.32 6.8L147.9 6.8L152.31 14.91ZM179.1 20.13L169.79 20.13L169.79 26.43L180.71 26.43L180.71 30.32L164.94 30.32L164.94 6.8L180.68 6.8L180.68 10.73L169.79 10.73L169.79 16.33L179.1 16.33L179.1 20.13Z" fill="#FFFFFF" fill-opacity="1.000000" fill-rule="nonzero"/>
		<path d="M37.24 10.18C31.73 10.18 27.25 14.66 27.25 20.16C27.25 25.66 31.73 30.14 37.24 30.14C42.75 30.14 47.23 25.66 47.23 20.16C47.23 14.66 42.75 10.18 37.24 10.18ZM37.24 28.38C32.7 28.38 29.01 24.69 29.01 20.16C29.01 15.63 32.7 11.94 37.24 11.94C41.78 11.94 45.47 15.63 45.47 20.16C45.47 24.69 41.78 28.38 37.24 28.38Z" fill="#FFFFFF" fill-opacity="1.000000" fill-rule="nonzero"/>
		<path d="M37.24 3.62C36.75 3.62 36.36 4.01 36.36 4.5L36.36 7.96C36.36 8.44 36.76 8.84 37.24 8.84C37.73 8.84 38.12 8.44 38.12 7.96L38.12 4.5C38.12 4.01 37.73 3.62 37.24 3.62Z" fill="#FFFFFF" fill-opacity="1.000000" fill-rule="nonzero"/>
		<path d="M48.95 8.46C48.6 8.12 48.05 8.12 47.7 8.46L45.25 10.91C44.91 11.25 44.91 11.81 45.25 12.15C45.43 12.32 45.65 12.41 45.88 12.41C46.1 12.41 46.33 12.32 46.5 12.15L48.95 9.71C49.29 9.36 49.29 8.81 48.95 8.46Z" fill="#FFFFFF" fill-opacity="1.000000" fill-rule="nonzero"/>
		<path d="M29.23 28.17C28.88 27.82 28.33 27.82 27.98 28.17L25.54 30.61C25.19 30.96 25.19 31.51 25.54 31.86C25.71 32.03 25.93 32.11 26.16 32.11C26.38 32.11 26.61 32.03 26.78 31.86L29.23 29.41C29.57 29.07 29.57 28.51 29.23 28.17Z" fill="#FFFFFF" fill-opacity="1.000000" fill-rule="nonzero"/>
		<path d="M52.91 19.28L49.45 19.28C48.97 19.28 48.57 19.67 48.57 20.16C48.57 20.64 48.97 21.04 49.45 21.04L52.91 21.04C53.4 21.04 53.79 20.65 53.79 20.16C53.79 19.67 53.4 19.28 52.91 19.28Z" fill="#FFFFFF" fill-opacity="1.000000" fill-rule="nonzero"/>
		<path d="M25.03 19.28L21.57 19.28C21.08 19.28 20.69 19.67 20.69 20.16C20.69 20.64 21.08 21.04 21.57 21.04L25.03 21.04C25.51 21.04 25.91 20.65 25.91 20.16C25.91 19.67 25.51 19.28 25.03 19.28Z" fill="#FFFFFF" fill-opacity="1.000000" fill-rule="nonzero"/>
		<path d="M29.23 10.91L26.78 8.46C26.44 8.12 25.88 8.12 25.54 8.46C25.19 8.81 25.19 9.36 25.54 9.71L27.98 12.15C28.16 12.33 28.38 12.41 28.61 12.41C28.83 12.41 29.06 12.33 29.23 12.15C29.57 11.81 29.57 11.25 29.23 10.91Z" fill="#FFFFFF" fill-opacity="1.000000" fill-rule="nonzero"/>
		<path d="M48.95 30.61L46.5 28.17C46.15 27.82 45.6 27.82 45.25 28.17C44.91 28.51 44.91 29.07 45.25 29.41L47.7 31.85C47.87 32.03 48.1 32.11 48.32 32.11C48.55 32.11 48.77 32.03 48.95 31.85C49.29 31.51 49.29 30.96 48.95 30.61Z" fill="#FFFFFF" fill-opacity="1.000000" fill-rule="nonzero"/>
		<path d="M60.28 48.74L60.53 46.97L60.64 46.16L65.5 46.82C65.99 46.89 66.43 46.55 66.49 46.07C66.56 45.59 66.22 45.15 65.74 45.08L60.88 44.42L61.48 40.03L66.35 40.69C66.83 40.76 67.27 40.42 67.34 39.94C67.4 39.46 67.07 39.02 66.58 38.95L61.72 38.29L61.83 37.48L62.07 35.7C62.14 35.22 61.8 34.77 61.32 34.71C60.84 34.64 60.4 34.98 60.33 35.46L60.21 36.37L55.9 35.78C53.1 35.39 50.49 37.14 49.7 39.76L41.96 38.7C39.42 38.35 37.64 36.01 37.99 33.48L38.27 31.43C38.34 30.95 38 30.5 37.52 30.44C37.04 30.37 36.59 30.71 36.53 31.19L36.25 33.24C35.77 36.73 38.22 39.96 41.72 40.44L49.46 41.5C49.51 44.24 51.56 46.62 54.36 47.01L58.67 47.6L58.54 48.51C58.48 48.99 58.81 49.43 59.29 49.5C59.77 49.56 60.22 49.23 60.28 48.74ZM54.6 45.27C52.46 44.97 50.96 43 51.26 40.86C51.55 38.73 53.53 37.23 55.67 37.52L59.97 38.11L58.91 45.86L54.6 45.27L54.6 45.27Z" fill="#FFFFFF" fill-opacity="1.000000" fill-rule="nonzero"/>
		<path d="M104.34 3.13C104.82 3.13 105.22 2.74 105.22 2.25C105.22 1.77 104.82 1.37 104.34 1.37C103.85 1.37 103.46 1.77 103.46 2.25C103.46 2.74 103.85 3.13 104.34 3.13Z" fill="#FFFFFF" fill-opacity="1.000000" fill-rule="nonzero"/>
		<path d="M100.2 3.13C100.69 3.13 101.08 2.74 101.08 2.25C101.08 1.77 100.69 1.37 100.2 1.37C99.71 1.37 99.32 1.77 99.32 2.25C99.32 2.74 99.71 3.13 100.2 3.13Z" fill="#FFFFFF" fill-opacity="1.000000" fill-rule="nonzero"/>
	</g>
</svg>
