<svg width="30.015625" height="22.000000" viewBox="0 0 30.0156 22" fill="none" xmlns="http://www.w3.org/2000/svg" xmlns:xlink="http://www.w3.org/1999/xlink">
	<desc>
			Created with Pixso.
	</desc>
	<defs/>
	<path d="M29.76 0.38C29.47 0.03 28.98 -0.09 28.55 0.06L1.01 9.6C0.46 9.8 0.08 10.26 0.01 10.82C-0.06 11.37 0.19 11.91 0.67 12.22L4.6 14.8C4.98 15.05 5.48 15.07 5.88 14.87L14.42 10.55L7.77 15.31C7.45 15.54 7.27 15.89 7.27 16.27L7.27 20.68C7.27 21.14 7.53 21.56 7.95 21.77C8.37 21.99 8.87 21.97 9.27 21.72L12.26 19.81L15.2 21.74C15.46 21.91 15.77 22 16.08 22C16.18 22 16.29 21.98 16.39 21.96C16.8 21.88 17.17 21.64 17.39 21.29L29.85 1.59C30.09 1.21 30.06 0.72 29.76 0.38ZM16.01 20.22L12.97 18.23C12.76 18.09 12.51 18.02 12.27 18.02C12.03 18.02 11.79 18.09 11.58 18.22L9.03 19.85L9.03 16.52L20.78 8.1C21.3 7.73 21.43 7.04 21.08 6.51C20.73 5.98 20.03 5.8 19.45 6.09L5.34 13.23L2.01 11.05L27.36 2.26L16.01 20.22Z" fill="#FFFFFF" fill-opacity="1.000000" fill-rule="nonzero"/>
</svg>
